<svg width="138" height="57" viewBox="0 0 138 57" fill="none" xmlns="http://www.w3.org/2000/svg">
<path d="M41.0337 29.4315C42.3986 33.7633 38.7886 38.1085 32.4139 39.8066C26.0393 41.5048 18.6781 40.0822 14.8373 36.4099C10.9964 32.7376 11.7473 27.8399 16.6301 24.7155L37.0841 11.6259C41.9247 8.52756 41.9247 3.50457 37.0841 0.40625L7.86603 19.1056C-2.62199 25.8187 -2.62199 36.7018 7.86603 43.4149C8.03009 43.5199 8.19544 43.623 8.36209 43.7244C22.6763 52.4325 45.9949 43.8312 41.744 31.488L41.0337 29.4315Z" fill="#201E3F"/>
<path d="M44.1456 45.0467L44.1316 26.7167L48.1876 26.7128L48.1933 34.0708L56.5912 34.0626L56.5856 26.7046L60.6676 26.7006L60.6816 45.0306L56.5996 45.0346L56.5938 37.4166L48.1958 37.4248L48.2016 45.0428L44.1456 45.0467ZM62.2493 45.029L70.6593 26.6908L74.0133 26.6875L82.5553 45.0092L78.4473 45.0132L76.2334 39.9194L77.8203 41.0358L66.9263 41.0465L68.5374 39.9269L66.3313 45.025L62.2493 45.029ZM72.3266 30.9532L68.9787 38.9125L68.2759 37.9251L76.4659 37.9171L75.8687 38.9057L72.4306 30.9531L72.3266 30.9532ZM84.1358 45.0076L84.1219 26.6776L87.1379 26.6747L97.1055 39.3269L96.4035 39.3276L96.3938 26.6656L100.164 26.6619L100.178 44.9919L97.1618 44.9949L87.2202 32.3426L87.8962 32.3419L87.9058 45.0039L84.1358 45.0076ZM108.128 44.9842L108.116 29.9562L102.292 29.9619L102.29 26.6599L117.994 26.6445L117.996 29.9465L112.172 29.9522L112.184 44.9802L108.128 44.9842ZM125.043 44.9676L125.036 36.2576L125.87 38.5708L117.827 26.6447L122.507 26.6401L127.557 34.4871L126.725 34.488L131.763 26.631L136.287 26.6266L128.288 38.5684L129.092 36.2536L129.099 44.9636L125.043 44.9676Z" fill="#201E3F"/>
</svg>
